<mxfile host="app.diagrams.net" modified="2024-06-20T17:07:55.260Z" agent="Mozilla/5.0 (Macintosh; Intel Mac OS X 10.15; rv:126.0) Gecko/20100101 Firefox/126.0" version="24.5.5" etag="v2oum05gzrHCZ57E2oXB" type="github">
  <diagram name="Page-1" id="8mzTLpE-g2ia8AFTpS4c">
    <mxGraphModel>
      <root>
        <mxCell id="0" />
        <mxCell id="1" parent="0" />
      </root>
    </mxGraphModel>
  </diagram>
</mxfile>
